<svg width="526" height="527" viewBox="0 0 526 527" fill="none" xmlns="http://www.w3.org/2000/svg">
<g clip-path="url(#clip0_8_461)">
<path d="M526 263.25C526.035 293.228 520.943 322.99 510.945 351.248C510.901 351.379 510.857 351.498 510.807 351.629V351.636C503.32 372.659 493.18 392.638 480.634 411.089C478.46 414.303 476.209 417.465 473.881 420.575C471.32 424.014 468.677 427.384 465.953 430.686C463.442 433.731 460.864 436.718 458.22 439.646C455.077 443.135 451.841 446.535 448.512 449.845C440.675 457.657 432.354 464.966 423.599 471.73C422.062 472.924 420.508 474.098 418.938 475.251C415.284 477.952 411.556 480.557 407.756 483.067C399.397 488.598 390.726 493.642 381.787 498.174C380.244 498.962 378.689 499.737 377.127 500.487C371.086 503.408 364.922 506.094 358.636 508.548C356.843 509.254 355.044 509.936 353.226 510.592C352.92 510.711 352.613 510.824 352.301 510.93C330.744 518.718 308.258 523.633 285.42 525.549C283.834 525.693 282.245 525.814 280.654 525.912C278.967 526.031 277.278 526.127 275.588 526.2C274.251 526.268 272.92 526.318 271.577 526.356C271.302 526.368 271.021 526.381 270.746 526.381C268.941 526.437 267.129 526.473 265.311 526.487C264.543 526.494 263.774 526.5 263 526.5C262.637 526.5 262.275 526.5 261.913 526.494C256.672 526.475 251.47 526.304 246.308 525.981C246.202 525.975 246.095 525.962 245.989 525.962C244.14 525.837 242.297 525.706 240.461 525.543C233.92 524.993 227.45 524.201 221.051 523.167C219.577 522.936 218.107 522.685 216.641 522.417C210.275 521.291 203.992 519.934 197.793 518.346C195.95 517.877 194.118 517.387 192.296 516.877C166.964 509.812 142.842 498.965 120.742 484.699C116.944 482.254 113.217 479.711 109.56 477.07C109.11 476.757 108.667 476.432 108.223 476.107C99.341 469.625 90.8723 462.594 82.8667 455.053C79.0747 451.489 75.3931 447.813 71.8219 444.023C25.611 395.212 -0.100715 330.496 -0.000194651 263.25C-0.000194651 117.862 117.75 0 263 0C408.25 0 526 117.862 526 263.25Z" fill="#F2F2F2"/>
<path d="M295.085 67.1117C300.351 58.3941 306.591 49.0864 316.363 46.2398C327.68 42.9434 339.305 49.4919 349.166 55.954C378.655 75.2799 407.054 96.2237 434.232 118.689L434.202 119.028C413.043 117.567 391.884 116.107 370.725 114.646C355.437 113.591 339.624 112.39 326.114 105.151C320.987 102.404 315.99 98.7351 310.181 98.4794C302.963 98.1618 296.67 103.207 291.725 108.479C262.47 139.66 254.004 187.345 221.184 214.74C241.879 163.653 266.591 114.288 295.085 67.1117Z" fill="white"/>
<path d="M115.261 331.59C118.496 327.501 119.818 326.543 123.009 322.417C148.993 288.779 173.415 254.005 196.276 218.095C211.804 193.707 226.562 168.85 240.551 143.524C247.21 131.484 253.687 119.35 259.981 107.121C264.866 97.6389 269.641 88.1001 274.307 78.5047C275.642 75.764 276.938 73.0108 278.229 70.2512C281.269 63.7619 284.252 57.241 287.456 50.8398C291.107 43.544 295.551 35.8954 302.254 30.9937C305.305 28.6714 308.953 27.2663 312.772 26.9426C318.23 26.5897 323.265 28.8453 327.998 31.3087C362.63 49.3844 395.052 72.0468 424.378 97.8342C453.778 123.679 480.058 152.878 502.68 184.836C503.372 185.825 505.009 184.88 504.31 183.884C501.559 179.991 498.754 176.139 495.894 172.33C472.162 140.715 444.792 112.008 414.351 86.8023C399.279 74.3204 383.498 62.723 367.087 52.0684C358.734 46.6501 350.224 41.4859 341.556 36.5758C337.188 34.0998 332.801 31.6552 328.338 29.3619C323.964 27.1127 319.318 25.0903 314.321 25.0147C297.313 24.7501 288.507 44.0291 282.458 57.0016C280.558 61.0842 278.634 65.1542 276.687 69.2117C269.329 84.616 261.687 99.8797 253.763 115.003C248.872 124.34 243.874 133.622 238.769 142.85C222.882 171.586 205.997 199.74 188.112 227.313C164.42 263.836 140.917 296.1 113.927 330.254C113.184 331.199 114.512 332.548 115.261 331.59Z" fill="white"/>
<path d="M209.391 178.282L184.052 169.005L171.471 164.399C167.374 162.899 163.286 161.191 159.05 160.117C155.305 159.168 151.5 159.012 147.808 160.261C144.55 161.468 141.568 163.318 139.039 165.702C136.456 168.083 134.052 170.653 131.847 173.39C129.108 176.684 126.409 180.014 123.699 183.332C112.511 197.028 101.396 210.782 90.3548 224.596C79.3136 238.41 68.3461 252.283 57.4525 266.214C46.5323 280.18 35.6872 294.203 24.9172 308.286C23.5978 310.011 22.2796 311.737 20.9625 313.464C20.2349 314.418 18.5941 313.477 19.3321 312.51C30.1815 298.286 41.1066 284.12 52.1074 270.013C63.1351 255.872 74.2391 241.791 85.4193 227.77C96.5992 213.749 107.855 199.789 119.186 185.89C122.009 182.427 124.836 178.968 127.668 175.513C130.058 172.598 132.42 169.653 135.04 166.94C139.85 161.961 145.86 157.56 153.053 157.441C157.282 157.371 161.375 158.714 165.305 160.137C169.541 161.671 173.767 163.233 177.998 164.782L203.514 174.124L209.893 176.459C211.025 176.874 210.536 178.701 209.391 178.282Z" fill="white"/>
<path d="M139.994 178.375C142.488 175.335 145.185 172.153 148.916 170.919L152.399 171.056C125.884 217.954 90.0726 258.934 47.1641 291.479C78.1073 253.777 109.051 216.076 139.994 178.375Z" fill="white"/>
<path d="M309.38 129.819C309.381 134.611 308.208 139.331 305.962 143.563C303.716 147.795 300.467 151.411 296.499 154.093C292.531 156.774 287.967 158.44 283.206 158.944C278.444 159.448 273.633 158.774 269.192 156.982C264.752 155.189 260.82 152.334 257.739 148.665C254.659 144.996 252.526 140.627 251.527 135.94C250.528 131.253 250.693 126.393 252.009 121.785C253.324 117.178 255.75 112.964 259.072 109.513C259.119 109.466 259.166 109.42 259.213 109.373C259.447 109.127 259.681 108.881 259.926 108.647C259.928 108.647 259.93 108.646 259.931 108.646C259.932 108.645 259.934 108.644 259.935 108.643C259.936 108.642 259.937 108.641 259.937 108.639C259.938 108.638 259.938 108.636 259.938 108.635C260.242 108.354 260.546 108.073 260.862 107.804C265.089 104.095 270.293 101.684 275.853 100.859C281.413 100.035 287.093 100.832 292.212 103.154C297.331 105.477 301.673 109.228 304.718 113.957C307.763 118.686 309.381 124.193 309.38 129.819Z" fill="#2F2E41"/>
<path d="M290.268 153.952C299.846 144.365 299.846 128.821 290.268 119.234C280.69 109.647 265.161 109.647 255.583 119.234C246.005 128.821 246.005 144.365 255.583 153.952C265.161 163.539 280.69 163.539 290.268 153.952Z" fill="#9E616A"/>
<path d="M290.45 112.985C286.65 109.426 281.924 107.012 276.815 106.021C271.707 105.03 266.422 105.502 261.57 107.382C261.426 107.438 261.282 107.501 261.138 107.57C261.132 107.57 261.132 107.576 261.126 107.576C260.657 107.77 260.183 107.97 259.727 108.189L259.445 108.326V108.364C259.396 108.401 259.339 108.445 259.283 108.483C259.168 108.59 259.029 108.667 258.877 108.708C254.161 108.77 250.319 110.371 247.47 113.466C243.666 117.593 241.879 124.265 242.429 132.257L242.441 132.5L242.653 132.638C244.665 133.895 246.57 135.002 248.407 135.971C249.494 136.552 250.55 137.084 251.599 137.572C251.724 137.628 251.849 137.69 251.974 137.747C262.594 142.655 272.308 143.543 281.641 140.435L281.816 140.379L285.783 133.726C286.192 135.999 287.284 138.093 288.914 139.728C290.544 141.363 292.634 142.46 294.904 142.874L296.553 143.168L298.97 143.593L299.07 143.137C301.469 132.319 298.002 120.207 290.45 112.985Z" fill="#2F2E41"/>
<path d="M350.7 164.51C342.354 160.198 353.088 144.548 350.931 135.398C348.774 126.249 333.242 123.306 332.252 113.957C331.263 104.608 328.935 94.9654 322.772 87.8713C318.833 83.3382 313.03 79.9918 307.055 80.5596C305.034 80.7517 303.077 81.3777 301.319 82.3948C299.561 83.412 298.043 84.7965 296.867 86.454C295.692 88.1115 294.888 90.0031 294.508 92C294.129 93.9968 294.185 96.052 294.67 98.0255C292.969 95.6128 288.567 96.1357 287.477 98.88C286.508 101.32 288.649 104.275 291.167 104.491C294.463 108.565 298.237 112.888 303.4 113.71C305.064 113.975 306.933 113.781 308.148 112.613C309.362 111.446 309.457 109.111 308.016 108.239C314.505 110.819 318.309 117.841 319.272 124.763C320.234 131.684 318.902 138.688 318.025 145.621C317.147 152.554 316.769 159.847 319.485 166.286C322.693 173.892 330.081 179.344 338.143 181.093C346.206 182.841 354.792 181.132 362.09 177.282C369.387 173.432 375.473 167.555 380.444 160.965C371.881 167.052 360.033 169.332 350.7 164.51Z" fill="#2F2E41"/>
<path d="M255.874 267.629L238.933 383.42L331.407 376.444L303.729 262.533L255.874 267.629Z" fill="#FFB8B8"/>
<path d="M352.613 509.748C352.531 510.147 352.427 510.542 352.301 510.93C341.629 514.792 330.715 517.948 319.629 520.378C317.293 512.687 312.814 498.124 308.89 486.212C305.686 476.489 302.856 468.535 301.869 467.541C299.126 464.808 301.869 461.163 301.869 461.163L290.156 424.714L284.833 408.156L283.009 442.941L280.36 493.328L280.285 494.741C280.285 494.741 276.637 505.677 278.461 507.503C280.285 509.329 276.637 516.626 276.637 516.626L275.588 526.2C274.251 526.268 272.92 526.318 271.577 526.356L271.121 526.5L270.746 526.381C268.941 526.437 267.129 526.473 265.311 526.487C264.543 526.494 263.774 526.5 263 526.5C262.637 526.5 262.275 526.5 261.913 526.494C256.672 526.475 251.47 526.304 246.308 525.981L243.103 499.875L239.792 472.899C239.792 472.899 243.434 465.615 239.792 461.969C237.599 459.774 238.699 456.585 239.929 454.397C239.167 451.014 238.124 445.811 236.719 438.108C236.669 437.851 236.625 437.589 236.575 437.326C236.131 434.881 235.734 432.484 235.382 430.135C234.757 426.002 234.27 422.031 233.895 418.23C232.624 405.916 232.448 393.513 233.37 381.168C233.72 376.779 234.157 373.565 234.445 371.708C234.47 371.533 234.738 370.551 235.176 369C235.863 366.518 236.993 362.578 238.262 358.17C238.936 355.831 239.648 353.361 240.354 350.904C241.585 346.646 242.809 342.425 243.796 339.011V338.992C244.665 335.997 245.358 333.633 245.721 332.395C245.895 331.789 245.989 331.457 245.989 331.457C245.989 331.457 246.183 331.414 246.551 331.332C247.695 331.07 250.518 330.438 254.429 329.594C258.508 328.731 263.762 327.637 269.534 326.524C274.476 325.573 279.798 324.604 285.089 323.735C286.988 323.428 288.888 323.128 290.762 322.847C302.337 321.121 312.964 320.139 317.999 321.259C318.347 321.333 318.691 321.427 319.029 321.54C319.371 321.653 319.7 321.802 320.01 321.984C320.166 322.078 321.678 327.981 323.608 335.672C323.627 335.747 323.646 335.828 323.665 335.903C324.246 338.229 324.864 340.705 325.495 343.238C326.139 345.82 326.788 348.453 327.425 351.017C329.318 358.633 331.067 365.68 331.967 369.131C332.311 370.47 332.536 371.264 332.586 371.351C334.697 374.872 336.421 383.501 337.82 394.325C339.07 403.985 340.063 415.397 340.832 426.484C341.213 431.967 341.537 437.376 341.812 442.454C342.743 459.537 343.118 472.874 343.118 472.874C343.118 472.874 344.511 483.992 347.278 489.238C347.619 489.916 348.055 490.541 348.572 491.096C350.414 492.94 350.627 494.541 350.383 495.679C350.277 496.216 350.055 496.724 349.734 497.167C349.661 497.276 349.579 497.378 349.49 497.474C349.252 498.605 349.294 499.777 349.612 500.889C349.929 502.001 350.514 503.018 351.314 503.852C353.082 505.634 352.938 508.185 352.613 509.748Z" fill="#2F2E41"/>
<path d="M322.322 230.491C322.216 229.703 322.103 228.909 321.985 228.108C321.916 227.595 321.835 227.083 321.76 226.576C320.966 221.461 324.271 217.084 319.992 213.545C318.991 212.73 318.176 211.711 317.599 210.556L316.619 208.58L314.813 204.916L310.865 196.95L310.184 195.58C309.991 195.191 309.77 194.817 309.522 194.461C308.784 193.388 307.823 192.488 306.704 191.822L296.897 185.969C295.381 185.069 294.161 183.746 293.386 182.161L293.142 181.661C292.061 179.441 290.125 174.133 287.832 171.825L287.826 171.819C287.326 171.247 286.648 170.862 285.902 170.725L276.138 169.756C274.576 169.597 273 169.847 271.564 170.482C270.129 171.116 268.882 172.114 267.948 173.376L267.679 174.595L266.111 181.742L266.024 181.761C265.562 181.868 265.099 181.974 264.643 182.105C254.517 184.875 250.294 220.311 250.294 220.311C250.294 220.311 243.203 232.023 245.99 239.27L250.962 250.957C251.001 251.045 251.03 251.137 251.05 251.232C251.499 252.504 251.657 253.861 251.512 255.202L251.518 255.659L251.531 256.666L251.568 259.248L251.687 267.815L251.837 278.538L251.968 287.674L252.012 290.106L243.822 325.78C243.688 326.952 243.786 328.139 244.111 329.273C244.436 330.407 244.981 331.466 245.715 332.389L245.721 332.395C245.901 332.626 246.093 332.847 246.296 333.058L246.302 333.064C246.496 333.264 246.695 333.446 246.902 333.627C247.888 334.491 249.051 335.128 250.309 335.494C251.567 335.86 252.891 335.947 254.186 335.747L255.279 335.578H255.285L271.153 333.196H271.165L273.002 332.92H273.014L290.775 330.25H290.787L293.829 329.788C294.073 329.756 294.31 329.725 294.554 329.706L310.815 328.587C311.188 328.562 311.56 328.514 311.927 328.443H311.933C313.363 328.16 314.704 327.537 315.842 326.626C316.98 325.715 317.883 324.543 318.474 323.21C318.72 322.675 318.906 322.115 319.03 321.54C319.171 320.918 319.248 320.283 319.261 319.645L319.442 304.313L320.061 254.765C320.073 253.111 320.545 251.494 321.422 250.094C323.678 246.492 323.422 238.776 322.322 230.491Z" fill="#8B2801"/>
<path d="M295.058 362.824C294.829 361.561 294.88 360.262 295.207 359.02C295.534 357.778 296.128 356.623 296.949 355.637C297.771 354.65 298.798 353.855 299.959 353.309C301.12 352.762 302.387 352.477 303.67 352.474L313.815 322.954L323.706 335.804L312.556 361.867C312.419 364.024 311.496 366.057 309.962 367.579C308.427 369.101 306.389 370.007 304.232 370.125C302.075 370.243 299.95 369.565 298.259 368.22C296.568 366.874 295.429 364.954 295.058 362.824Z" fill="#9E616A"/>
<path d="M333.766 300.718L331.486 306.47L328.3 342.056C327.311 342.305 326.365 342.703 325.495 343.238C323.606 344.407 322.168 346.181 321.414 348.272C320.66 350.364 320.634 352.648 321.341 354.756L322.278 357.57L315.313 355.425L303.862 351.904L290.362 347.752L292.648 340.33C293.178 338.625 293.285 336.816 292.96 335.06C292.636 333.304 291.89 331.654 290.787 330.25C290.514 329.901 290.22 329.569 289.906 329.256L290.762 322.847L291.268 319.039L285.09 323.735L273.008 332.92H273.002L271.402 334.14C271.402 334.14 271.315 333.815 271.152 333.196C270.846 332.001 270.272 329.713 269.534 326.524C265.884 310.632 263.195 294.535 261.482 278.32C261.107 274.668 260.782 270.929 260.52 267.133C260.251 263.225 260.051 259.261 259.945 255.271C259.046 222.799 264.031 188.758 284.865 171.35C285.872 171.357 286.873 171.517 287.832 171.825C296.266 174.42 305.517 187.101 311.914 196.174C313.426 198.319 314.775 200.258 315.919 201.815L318.686 205.585C322.465 210.737 325.08 216.649 326.351 222.912C326.62 224.238 326.83 225.58 326.982 226.939L330.006 254.777V261.949L333.766 300.718Z" fill="#8B2801"/>
<path d="M15.2363 350.621C20.6633 357.057 26.5332 363.106 32.803 368.723L493.572 369.349C499.841 363.732 505.711 357.683 511.138 351.246L15.2363 350.621Z" fill="#CCCCCC"/>
<path d="M265.312 526.487C264.543 526.493 263.775 526.5 263 526.5C262.638 526.5 262.275 526.5 261.913 526.494C256.672 526.475 251.47 526.304 246.308 525.981L246.433 527L245.989 525.962L236.088 502.889L243.103 499.875L255.972 494.341L259.877 507.778L263.612 520.647L264.724 524.461L265.312 526.487Z" fill="#FFB6B6"/>
<path d="M219.439 499.7L216.641 522.417C210.275 521.291 203.993 519.934 197.793 518.346V499.706L219.439 499.7Z" fill="#FFB6B6"/>
<path d="M120.743 457.83V484.699C116.945 482.254 113.217 479.711 109.561 477.07V457.83H120.743Z" fill="#CACACA"/>
<path d="M164.066 453.353V466.778C164.065 469.251 163.084 471.622 161.337 473.372C159.591 475.121 157.222 476.105 154.752 476.107H108.224C99.3414 469.625 90.8726 462.593 82.867 455.053C79.0751 451.489 75.3935 447.812 71.8223 444.023H154.752C157.222 444.026 159.59 445.011 161.336 446.76C163.083 448.509 164.064 450.88 164.066 453.353Z" fill="#3F3D56"/>
<path d="M273.108 525.868L271.577 526.356L271.121 526.5L270.746 526.381C268.941 526.437 267.129 526.473 265.311 526.487C264.543 526.493 263.775 526.5 263 526.5C262.638 526.5 262.275 526.5 261.913 526.493C256.672 526.475 251.47 526.304 246.308 525.981L246.433 527L245.989 525.962C244.14 525.837 242.297 525.706 240.461 525.543L225.924 501.175L196.007 451.033L192.54 445.224C192.54 445.224 180.714 448.725 163.978 452.083C151.366 454.622 135.967 457.067 120.743 457.867C116.988 458.067 113.246 458.167 109.56 458.136C100.034 458.074 90.8818 457.179 82.8668 455.053C79.0749 451.489 75.3933 447.812 71.8221 444.023C65.7343 437.58 59.9756 430.832 54.5678 423.807C54.495 421.229 54.6266 418.649 54.9614 416.091C55.0176 415.666 55.0738 415.234 55.1425 414.797L56.848 385.808L69.5169 384.132L88.7953 381.581L109.679 378.817L111.978 396.838C111.978 396.838 128.239 396.013 148.842 396.288C181.932 396.738 226.211 400.04 232.208 414.209C232.771 415.541 233.333 416.885 233.895 418.23C245.54 446.149 256.234 475.894 263.5 497.029C264.887 501.056 266.142 504.764 267.26 508.091C270.952 519.077 273.108 525.868 273.108 525.868Z" fill="#2F2E41"/>
<path d="M237.687 430.185C237.381 432.837 237.058 435.477 236.719 438.108C233.72 461.375 229.591 483.598 225.924 501.175C224.131 509.754 222.444 517.22 221.051 523.167C219.577 522.936 218.107 522.685 216.641 522.417C210.275 521.291 203.992 519.934 197.793 518.346C195.95 517.877 194.118 517.387 192.296 516.876L196.007 451.033L197.231 429.254L235.382 430.135L237.687 430.185Z" fill="#2F2E41"/>
<path d="M299.029 328.343C300.62 327.453 302.387 326.924 304.204 326.792C306.021 326.66 307.846 326.928 309.548 327.578C311.251 328.228 312.79 329.243 314.058 330.553C315.326 331.863 316.292 333.435 316.887 335.159L361.18 335.211L348.486 354.43L308.371 351.434C305.412 352.243 302.258 351.937 299.509 350.575C296.76 349.212 294.605 346.888 293.454 344.041C292.302 341.195 292.234 338.025 293.262 335.132C294.289 332.238 296.341 329.823 299.029 328.343Z" fill="#FFB6B6"/>
<path d="M323.178 354.333L402.951 362.265L403.161 361.996C403.564 361.481 443.496 310.318 450.205 298.138C454.333 290.821 455.836 282.31 454.465 274.02L454.419 273.817L454.26 273.683C451.007 270.954 446.922 269.416 442.678 269.323C438.435 269.23 434.286 270.587 430.916 273.17C414.713 285.731 401.649 301.889 392.754 320.37L387.707 330.888L329.166 333.402L323.178 354.333Z" fill="#8B2801"/>
<path d="M292.411 498.512L280.654 525.912C278.967 526.031 277.279 526.127 275.588 526.2C274.251 526.268 272.92 526.318 271.577 526.356L271.121 526.5L270.746 526.381C268.941 526.437 267.129 526.473 265.311 526.487C264.543 526.494 263.775 526.5 263 526.5C262.638 526.5 262.275 526.5 261.913 526.494L262.694 523.817L263.612 520.647L267.261 508.091L272.527 489.964L280.361 493.328L292.411 498.512Z" fill="#FFB6B6"/>
<path d="M377.127 500.487C371.086 503.408 364.922 506.094 358.636 508.548L352.489 498.199L372.304 489.488L377.127 500.487Z" fill="#FFB6B6"/>
<path d="M418.939 453.453V475.25C415.284 477.952 411.557 480.557 407.756 483.067V453.453H418.939Z" fill="#CACACA"/>
<path d="M458.22 439.646C455.078 443.135 451.842 446.535 448.512 449.845C440.675 457.657 432.354 464.966 423.599 471.73H373.747C372.424 471.73 371.116 471.447 369.91 470.901C368.705 470.354 367.63 469.556 366.757 468.56L366.751 468.541C365.711 467.367 364.989 465.946 364.652 464.414L364.646 464.402C364.505 463.744 364.433 463.073 364.433 462.401V448.976C364.435 446.503 365.416 444.132 367.163 442.383C368.909 440.634 371.277 439.649 373.747 439.646H458.22Z" fill="#3F3D56"/>
<path d="M478.76 387.246L473.356 410.42C473.885 413.777 474.061 417.181 473.881 420.574C471.32 424.014 468.677 427.384 465.954 430.686C463.442 433.731 460.864 436.718 458.22 439.646C455.077 443.135 451.842 446.535 448.512 449.845C439.841 452.571 429.621 453.684 418.938 453.759C415.253 453.79 411.511 453.69 407.756 453.49C392.532 452.69 377.133 450.245 364.521 447.706C361.185 447.043 358.049 446.368 355.162 445.711C349.696 444.48 345.123 443.329 341.812 442.454C338.083 441.478 335.959 440.847 335.959 440.847L321.772 464.627L308.891 486.212L285.421 525.549C283.834 525.693 282.245 525.814 280.654 525.912C278.967 526.031 277.279 526.127 275.588 526.2C274.251 526.268 272.92 526.318 271.577 526.356L271.121 526.5L270.746 526.381L264.724 524.461L262.694 523.817L255.391 521.491C255.391 521.491 257.022 516.351 259.876 507.778C260.926 504.633 262.138 501.019 263.5 497.029C268.416 482.61 275.232 463.245 283.009 442.941C285.314 436.913 287.701 430.798 290.156 424.714C292.167 419.718 294.216 414.74 296.29 409.832C299.895 401.322 317.312 396.732 337.821 394.325C338.864 394.206 339.913 394.087 340.969 393.974C351.42 392.874 362.509 392.305 372.879 392.042C378.07 391.911 383.08 391.861 387.741 391.855C389.246 391.855 390.71 391.859 392.132 391.867H392.139C395.98 391.886 399.516 391.942 402.627 392.005C403.233 392.017 403.821 392.036 404.395 392.048H404.401C404.789 392.055 405.17 392.067 405.545 392.073C412.348 392.249 416.521 392.461 416.521 392.461L418.139 379.755L418.47 377.191L418.782 374.753V374.747L418.82 374.44L419.076 374.434L423.574 374.346L461.381 373.609L482.033 373.202L478.76 387.246Z" fill="#2F2E41"/>
<path d="M381.787 498.174C380.244 498.962 378.689 499.737 377.127 500.487C371.086 503.408 364.922 506.094 358.636 508.547C356.843 509.254 355.044 509.936 353.226 510.592C353.026 510.311 352.82 510.029 352.614 509.748C343.943 497.836 332.923 482.116 321.772 464.627C317.105 457.311 312.414 449.682 307.86 441.891L340.832 426.484L344.53 424.758L355.162 445.711L364.645 464.402L366.757 468.56L381.787 498.174Z" fill="#2F2E41"/>
<path d="M429.647 237.645C446.423 237.645 460.023 224.032 460.023 207.239C460.023 190.447 446.423 176.834 429.647 176.834C412.871 176.834 399.271 190.447 399.271 207.239C399.271 224.032 412.871 237.645 429.647 237.645Z" fill="#FFB6B6"/>
<path d="M428.642 236.325C435.744 239.736 444.485 238.58 451.266 234.567C458.047 230.554 463.037 224.01 466.524 216.94C469.078 211.762 470.933 205.832 469.454 200.25C467.975 194.669 462.075 189.992 456.548 191.645C460.335 188.593 459.893 182.299 456.833 178.517C453.773 174.735 448.945 172.917 444.28 171.546C437.509 169.557 430.395 168.153 423.413 169.17C416.43 170.188 409.555 173.972 406.27 180.222C403.989 180.81 401.578 180.625 399.414 179.694C397.25 178.764 395.455 177.142 394.311 175.081C393.55 177.062 393.462 179.239 394.061 181.274C394.66 183.31 395.913 185.091 397.626 186.342L388.169 181.207C385.758 184.552 387.949 189.653 391.609 191.548C395.269 193.443 399.692 192.937 403.687 191.925C407.681 190.912 402.969 199.356 407.088 199.437C411.208 199.519 415.664 201.677 416.844 205.628C417.462 207.698 417.102 209.921 417.284 212.073C417.466 214.226 418.496 216.614 420.581 217.175C421.897 217.529 423.338 217.059 424.644 217.453C426.262 217.941 427.249 219.674 427.391 221.36C427.534 223.046 427.006 224.708 426.484 226.317C424.423 232.678 431.038 229.113 428.977 235.473L428.642 236.325Z" fill="#2F2E41"/>
<path d="M488.243 326.136C487.993 301.024 486.856 283.91 484.869 275.262C479.534 252.013 454.89 247.774 451.029 247.249C450.618 246.153 449.986 245.153 449.172 244.313C448.359 243.472 447.381 242.808 446.3 242.361C445.219 241.915 444.057 241.696 442.888 241.718C441.719 241.74 440.567 242.003 439.503 242.49L421.993 250.519C418.441 252.153 415.262 254.5 412.654 257.415C410.045 260.33 408.064 263.751 406.831 267.464L404.233 275.406L402.927 328.7L407.238 351.117L407.244 351.129L410.149 366.23L408.15 369.231L396.736 386.365L396.543 386.665L396.536 386.671L396.037 387.415C396.73 387.796 397.417 388.172 398.092 388.547C399.841 389.51 401.546 390.454 403.208 391.379C403.608 391.605 404.002 391.823 404.395 392.049H404.401C404.651 392.186 404.901 392.324 405.145 392.461C411.379 395.95 417.054 399.183 422.168 402.16C422.88 402.572 423.586 402.985 424.279 403.391C447.893 417.217 459.863 425.683 465.953 430.686C468.677 427.384 471.32 424.014 473.881 420.575C476.205 417.467 478.456 414.305 480.634 411.089C481.015 408.575 481.271 406.061 481.521 403.598C481.821 400.634 482.133 397.564 482.658 394.543C482.889 393.205 482.002 391.936 481.146 390.71C480.353 389.566 479.603 388.491 479.759 387.478C479.922 386.433 481.071 385.295 482.189 384.189C483.408 382.975 484.669 381.725 484.851 380.405C485.35 376.729 485.794 373.039 486.181 369.338C486.818 363.316 487.308 357.276 487.649 351.217C488.13 342.85 488.328 334.49 488.243 326.136Z" fill="#8B2801"/>
<path d="M372.612 414.778C373.127 413.028 374.019 411.413 375.225 410.046C376.431 408.678 377.922 407.593 379.592 406.864C381.263 406.136 383.073 405.784 384.894 405.831C386.716 405.879 388.505 406.326 390.135 407.141L421.817 376.157L426.182 398.778L395.427 424.733C393.878 427.383 391.412 429.373 388.495 430.325C385.579 431.277 382.414 431.126 379.602 429.899C376.79 428.672 374.525 426.455 373.237 423.668C371.948 420.881 371.726 417.718 372.612 414.778Z" fill="#FFB6B6"/>
<path d="M408.033 416.434L470.571 366.231L470.533 365.892C470.461 365.242 463.225 300.722 459.504 287.322C457.338 279.203 452.463 272.07 445.689 267.107L445.514 266.994L445.307 267.009C441.075 267.338 437.081 269.1 433.984 272.006C430.887 274.911 428.872 278.787 428.27 282.993C425.475 303.314 427.436 324.008 434 343.441L437.746 354.49L397.679 397.286L408.033 416.434Z" fill="#8B2801"/>
<path d="M87.7797 237.099C102.749 237.099 114.885 224.952 114.885 209.969C114.885 194.985 102.749 182.838 87.7797 182.838C72.8101 182.838 60.6748 194.985 60.6748 209.969C60.6748 224.952 72.8101 237.099 87.7797 237.099Z" fill="#A0616A"/>
<path d="M51.3637 416.613L51.2158 416.405C43.3201 405.34 55.1953 378.752 56.9863 374.898C54.8595 374.207 53.0377 372.8 51.8311 370.916C50.6246 369.031 50.108 366.786 50.3692 364.564L51.1413 357.994L51.9461 351.551L46.1805 345.78L46.1643 345.636L42.8463 316.575L38.022 297.274C36.2042 289.977 36.3591 282.328 38.4708 275.111C40.5825 267.894 44.5748 261.369 50.038 256.207L61.1894 254.435L74.7417 241.365H96.5964L104.09 248.531C118.822 260.618 122.32 255.367 138.933 278.122L127.038 309.49L133.686 355.754L133.69 364.127L137.153 367.979C138.401 369.367 139.307 371.027 139.8 372.827C140.293 374.627 140.36 376.518 139.994 378.348L139.539 380.627C141.299 381.382 142.852 382.548 144.069 384.029C145.286 385.509 146.13 387.259 146.531 389.133L147.747 394.814C148.788 396.188 155.656 405.355 155.656 407.861C155.656 408.237 155.379 408.6 154.783 409.004C150.103 412.176 124.233 418.644 112.783 414.058C100.586 409.177 52.1041 416.499 51.6156 416.574L51.3637 416.613Z" fill="#3F3D56"/>
<path d="M37.5938 306.557L60.1308 302.141C68.4655 314.6 72.9401 348.668 72.9401 348.668L97.8572 400.392C99.3888 401.323 100.646 402.644 101.502 404.22C102.358 405.796 102.781 407.571 102.728 409.364C102.675 411.157 102.149 412.904 101.202 414.427C100.255 415.95 98.9224 417.195 97.3388 418.034C95.7552 418.874 93.9776 419.278 92.187 419.207C90.3965 419.135 88.6569 418.589 87.1455 417.625C85.6341 416.662 84.4049 415.314 83.583 413.72C82.7611 412.126 82.376 410.343 82.4668 408.552L49.9684 347.268L37.5938 306.557Z" fill="#A0616A"/>
<path d="M37.4674 311.91L36.8267 278.381L47.4325 264.179C49.5247 261.398 52.3523 259.259 55.5955 258.003C58.8388 256.746 62.3685 256.423 65.7857 257.069C70.4121 257.976 74.5219 260.607 77.2839 264.432C80.046 268.256 81.2543 272.987 80.6646 277.669C78.8644 291.866 74.7774 309.633 65.5311 313.652L65.4374 313.693L75.0204 347.24L39.4823 352.209L37.4674 311.91Z" fill="#3F3D56"/>
<path d="M171.318 308.947C171.318 308.947 144.272 287.786 129.603 284.747L116.62 303.707L151.733 325.246L220.095 345.031C221.292 346.362 222.819 347.352 224.522 347.901C226.225 348.449 228.043 348.537 229.791 348.156C231.539 347.774 233.155 346.936 234.475 345.727C235.795 344.518 236.771 342.981 237.306 341.272C237.84 339.563 237.914 337.743 237.518 335.997C237.123 334.25 236.273 332.64 235.054 331.328C233.836 330.017 232.293 329.052 230.581 328.53C228.87 328.009 227.051 327.95 225.309 328.36L171.318 308.947Z" fill="#A0616A"/>
<path d="M123.734 313.199L95.5482 295.072L89.6626 278.348C88.5192 275.06 88.3171 271.518 89.0792 268.122C89.8413 264.726 91.5373 261.61 93.9754 259.128C97.3031 255.786 101.775 253.832 106.486 253.664C111.197 253.495 115.797 255.123 119.355 258.22C130.137 267.618 144.032 270.768 142.223 280.694L147.414 281.453L173.959 301.633L158.305 333.952L123.734 313.199Z" fill="#3F3D56"/>
<path d="M57.0353 192.142C60.0789 187.429 65.7904 184.288 71.3272 185.17C71.8425 181.634 73.3174 178.306 75.5913 175.55C77.8652 172.794 80.8509 170.715 84.2233 169.54C87.5958 168.365 91.2256 168.139 94.7177 168.886C98.2098 169.632 101.43 171.324 104.028 173.776C105.659 172.478 108.028 172.409 109.963 173.181C111.869 174.049 113.527 175.381 114.785 177.055C117.962 181.021 120.006 185.775 120.698 190.811C121.39 195.847 120.704 200.977 118.715 205.654C119.392 203.192 116.926 200.875 114.435 200.323C111.945 199.77 109.332 200.293 106.806 199.933C103.569 199.472 100.658 197.592 97.416 197.169C94.6909 196.814 91.9504 197.513 89.293 198.214C86.6356 198.915 83.9022 199.63 81.1732 199.305C78.4441 198.981 74.9288 209.333 74.9759 216.625C74.9849 218.006 74.7006 219.78 73.3515 220.074C71.6901 220.435 70.7274 218.139 69.146 217.514C67.7371 216.957 66.0482 217.99 65.5577 219.424C65.3584 220.158 65.337 220.929 65.4954 221.672C65.6538 222.416 65.9874 223.111 66.4683 223.699C67.4403 224.866 68.5942 225.868 69.8854 226.666L69.2341 227.209C68.1508 228.641 65.9037 228.703 64.3422 227.817C62.7809 226.931 61.7548 225.354 60.8298 223.814C57.941 219.004 55.407 213.88 54.3875 208.362C53.368 202.843 53.9919 196.855 57.0353 192.142Z" fill="#2F2E41"/>
<path opacity="0.2" d="M295.069 237.736C297.819 249.201 299.087 260.972 298.844 272.761C298.61 284.551 296.887 296.264 293.717 307.621C291.928 314.035 289.671 320.308 286.965 326.392C286.478 327.485 288.093 328.44 288.584 327.338C293.469 316.377 296.923 304.832 298.862 292.987C300.808 281.14 301.244 269.093 300.161 257.135C299.547 250.432 298.45 243.782 296.876 237.237C296.594 236.064 294.786 236.561 295.069 237.736Z" fill="black"/>
<path opacity="0.2" d="M470.044 317.965L454.378 356.244C451.856 362.405 449.41 368.603 446.786 374.721C444.423 380.229 441.729 385.761 437.752 390.302C433.739 394.886 428.34 398.607 422.172 399.334C420.988 399.473 420.974 401.351 422.172 401.21C427.806 400.545 432.856 397.742 436.934 393.865C441.344 389.672 444.452 384.331 446.989 378.85C449.817 372.741 452.222 366.425 454.771 360.196L462.781 340.625L471.851 318.463C472.308 317.347 470.495 316.861 470.044 317.965Z" fill="black"/>
<path d="M284.34 352.71C284.615 353.512 285.137 354.206 285.831 354.692C286.525 355.179 287.355 355.433 288.202 355.418L304.752 354.991C305.605 354.975 306.43 354.682 307.104 354.157C307.777 353.632 308.263 352.904 308.488 352.079L310.83 327.013C311.661 327.39 312.565 327.576 313.477 327.558C314.27 327.538 315.05 327.362 315.775 327.04C316.499 326.718 317.153 326.256 317.699 325.681C318.246 325.107 318.673 324.43 318.958 323.689C319.243 322.949 319.379 322.16 319.36 321.367C319.34 320.574 319.164 319.792 318.842 319.067C318.521 318.342 318.06 317.687 317.485 317.141C316.911 316.594 316.235 316.166 315.495 315.881C314.755 315.596 313.967 315.459 313.175 315.479C312.81 315.478 312.446 315.516 312.09 315.592C311.702 315.172 311.231 314.838 310.707 314.612C310.182 314.385 309.616 314.271 309.045 314.277L283.588 314.935C283.377 314.943 283.167 314.969 282.96 315.013C282.402 315.117 281.872 315.34 281.407 315.666C280.942 315.992 280.552 316.414 280.264 316.904C279.976 317.394 279.795 317.939 279.735 318.505C279.675 319.07 279.737 319.641 279.916 320.181L284.34 352.71ZM311.31 325.311L312.977 319.338C313.166 318.648 313.171 317.92 312.989 317.228C313.07 317.227 313.142 317.189 313.223 317.189C314.365 317.165 315.471 317.596 316.296 318.387C317.122 319.178 317.601 320.264 317.628 321.408C317.654 322.552 317.227 323.659 316.439 324.488C315.651 325.317 314.567 325.799 313.425 325.829C312.686 325.852 311.955 325.673 311.31 325.311Z" fill="#2F2E41"/>
<path d="M282.96 315.013C283.503 318.117 289.6 320.299 296.932 319.92C303.675 319.609 309.188 317.239 310.198 314.431C309.824 314.32 309.435 314.268 309.045 314.277L283.588 314.935C283.377 314.943 283.167 314.969 282.96 315.013Z" fill="#3F3D56"/>
<path d="M229.217 318.93C229.396 318.391 229.458 317.819 229.398 317.254C229.338 316.689 229.157 316.143 228.869 315.653C228.581 315.164 228.191 314.742 227.726 314.415C227.261 314.089 226.731 313.867 226.173 313.762C225.966 313.718 225.756 313.692 225.545 313.684L200.088 313.026C199.517 313.021 198.951 313.135 198.426 313.361C197.902 313.588 197.431 313.921 197.043 314.341C196.687 314.265 196.323 314.227 195.958 314.228C194.358 314.188 192.808 314.786 191.648 315.89C190.488 316.994 189.814 318.514 189.773 320.116C189.733 321.718 190.33 323.27 191.433 324.431C192.537 325.592 194.055 326.267 195.656 326.307C196.568 326.325 197.472 326.139 198.303 325.762L200.645 350.829C200.87 351.653 201.356 352.382 202.029 352.907C202.703 353.432 203.528 353.724 204.381 353.741L220.931 354.167C221.778 354.182 222.608 353.928 223.302 353.442C223.996 352.955 224.518 352.261 224.793 351.459L229.217 318.93ZM195.708 324.578C194.566 324.548 193.482 324.066 192.694 323.237C191.906 322.409 191.479 321.301 191.505 320.157C191.532 319.014 192.011 317.927 192.837 317.136C193.662 316.346 194.768 315.915 195.91 315.938C195.991 315.939 196.063 315.977 196.143 315.977C195.962 316.669 195.967 317.397 196.156 318.087L197.823 324.061C197.178 324.422 196.447 324.601 195.708 324.578Z" fill="#2F2E41"/>
<path d="M226.173 313.762C225.63 316.866 219.533 319.048 212.201 318.669C205.458 318.358 199.946 315.989 198.936 313.18C199.309 313.069 199.698 313.017 200.088 313.026L225.545 313.684C225.756 313.692 225.966 313.718 226.173 313.762Z" fill="#3F3D56"/>
<path d="M202.047 259.311C203.322 258.379 204.786 257.737 206.336 257.432C207.886 257.127 209.484 257.166 211.017 257.546C212.55 257.926 213.981 258.638 215.21 259.632C216.438 260.625 217.434 261.876 218.128 263.297L256.243 258.682L247.339 276.553L212.509 278.196C210.048 279.203 207.303 279.272 204.794 278.389C202.286 277.506 200.188 275.733 198.898 273.405C197.608 271.077 197.217 268.357 197.797 265.759C198.377 263.162 199.889 260.867 202.047 259.311Z" fill="#9E616A"/>
<path d="M326.351 222.912C325.227 225.119 323.858 227.689 322.322 230.491C316.924 240.364 309.509 253.108 303.799 262.806C298.92 271.079 295.278 277.144 295.178 277.313L295.022 277.563L261.482 278.32L254.285 278.482L251.836 278.538L225.555 279.132L225.805 277.569L228.26 262.074L228.51 260.492L251.53 256.666L259.945 255.271L278.611 252.17L281.853 242.59C287.564 225.753 297.106 210.475 309.728 197.963C310.096 197.606 310.471 197.269 310.865 196.95C311.208 196.675 311.558 196.412 311.914 196.174C313.426 198.319 314.775 200.258 315.918 201.814L318.686 205.585C322.464 210.737 325.08 216.649 326.351 222.912Z" fill="#8B2801"/>
<path d="M186.886 280.175C187.161 280.977 187.683 281.671 188.377 282.158C189.071 282.645 189.902 282.899 190.749 282.883L207.298 282.457C208.152 282.44 208.977 282.148 209.65 281.623C210.324 281.098 210.809 280.369 211.035 279.545L213.376 254.479C214.207 254.855 215.112 255.041 216.024 255.023C217.624 254.983 219.143 254.308 220.246 253.147C221.349 251.986 221.946 250.434 221.906 248.832C221.866 247.231 221.192 245.71 220.032 244.606C218.872 243.502 217.321 242.904 215.721 242.945C215.356 242.943 214.993 242.981 214.636 243.057C214.249 242.638 213.777 242.304 213.253 242.077C212.729 241.851 212.163 241.737 211.592 241.742L186.135 242.4C185.923 242.408 185.713 242.434 185.507 242.478C184.948 242.583 184.419 242.805 183.954 243.131C183.489 243.458 183.099 243.88 182.81 244.369C182.522 244.859 182.342 245.405 182.282 245.97C182.222 246.535 182.283 247.107 182.462 247.646L186.886 280.175ZM213.857 252.777L215.523 246.803C215.713 246.113 215.717 245.386 215.536 244.693C215.617 244.693 215.688 244.655 215.769 244.655C216.912 244.631 218.017 245.062 218.843 245.853C219.669 246.643 220.147 247.73 220.174 248.874C220.201 250.017 219.773 251.125 218.986 251.954C218.198 252.782 217.114 253.264 215.971 253.294C215.232 253.317 214.501 253.138 213.857 252.777Z" fill="#CCCCCC"/>
<path d="M185.507 242.478C186.049 245.583 192.147 247.765 199.479 247.385C206.221 247.074 211.734 244.705 212.744 241.896C212.37 241.786 211.981 241.734 211.592 241.742L186.135 242.4C185.924 242.408 185.714 242.434 185.507 242.478Z" fill="#3F3D56"/>
</g>
<defs>
<clipPath id="clip0_8_461">
<rect width="526" height="527" fill="white"/>
</clipPath>
</defs>
</svg>
